<?xml version="1.0" standalone="no"?>
<!DOCTYPE svg PUBLIC "-//W3C//DTD SVG 20010904//EN"
 "http://www.w3.org/TR/2001/REC-SVG-20010904/DTD/svg10.dtd">
<svg version="1.0" xmlns="http://www.w3.org/2000/svg"
 width="500.000000pt" height="500.000000pt" viewBox="0 0 500.000000 500.000000"
 preserveAspectRatio="xMidYMid meet">
<metadata>
Created by potrace 1.16, written by Peter Selinger 2001-2019
</metadata>
<g transform="translate(0.000000,500.000000) scale(0.100000,-0.100000)"
fill="#000000" stroke="none">
<path d="M0 2500 l0 -2500 2500 0 2500 0 0 2500 0 2500 -2500 0 -2500 0 0
-2500z m2694 1125 c4 -115 9 -277 10 -360 l1 -150 -25 0 -25 0 -12 170 c-13
193 -17 538 -6 549 4 4 16 6 28 4 19 -3 20 -12 29 -213z m-844 55 c14 -27 27
-98 40 -223 6 -59 26 -157 46 -226 47 -167 47 -219 -2 -209 -12 2 -21 20 -30
65 -7 35 -24 100 -38 145 -13 46 -29 117 -35 158 -6 41 -17 122 -26 179 -11
77 -12 107 -4 117 16 20 37 17 49 -6z m2028 -236 c2 -12 -11 -39 -32 -65 -19
-24 -76 -103 -126 -176 -96 -139 -271 -346 -297 -351 -23 -6 -36 13 -29 41 3
13 43 64 88 114 46 49 116 139 157 199 73 107 149 208 184 246 23 24 51 20 55
-8z m-1593 -16 c2 -13 12 -80 20 -150 17 -134 12 -173 -22 -166 -25 5 -30 24
-46 163 -16 139 -11 175 23 175 12 0 21 -8 25 -22z m924 -88 c4 -33 -80 -288
-98 -295 -19 -8 -41 13 -41 39 0 26 78 255 93 274 16 20 42 10 46 -18z m-2345
-190 c23 -22 76 -79 117 -127 76 -89 162 -183 307 -333 45 -48 82 -91 82 -98
0 -6 -10 -17 -22 -23 -20 -11 -33 -1 -166 137 -79 82 -168 179 -198 216 -30
38 -91 104 -134 148 -75 76 -89 98 -73 113 15 16 46 4 87 -33z m641 -92 c26
-29 74 -81 107 -115 62 -66 66 -74 44 -92 -25 -21 -67 11 -159 118 -82 95 -96
119 -80 134 16 17 44 3 88 -45z m1265 -3 c108 -21 214 -52 265 -77 69 -35 257
-148 340 -205 191 -131 321 -308 399 -543 52 -157 76 -380 41 -380 -12 0 -15
13 -15 58 0 80 -36 286 -60 338 -10 24 -44 88 -74 143 -86 153 -224 274 -496
434 -47 28 -129 79 -182 114 -116 75 -124 79 -219 92 -101 14 -480 -15 -709
-53 -155 -26 -247 -84 -480 -299 -64 -59 -210 -218 -210 -228 0 -4 -20 -42
-45 -85 -56 -98 -80 -173 -95 -288 -6 -50 -13 -93 -15 -96 -2 -3 -4 -32 -6
-65 -2 -57 -1 -60 20 -57 13 1 30 -2 39 -8 12 -6 -13 -9 -83 -9 -74 0 -95 2
-82 10 10 6 30 9 45 7 l27 -3 6 90 c13 176 54 321 131 465 116 218 332 418
570 530 146 68 278 105 483 134 63 9 324 -3 405 -19z m1148 -252 c4 -29 -132
-188 -162 -188 -43 0 -31 40 39 124 36 44 71 82 78 85 23 9 42 1 45 -21z m556
-28 c2 -7 -1 -20 -7 -28 -13 -17 -162 -114 -302 -197 -49 -30 -124 -77 -165
-105 -100 -69 -96 -67 -114 -49 -12 12 -13 20 -6 35 11 20 153 118 310 213 52
32 130 79 173 106 76 47 100 53 111 25z m-3592 -344 c18 -11 78 -34 133 -51
55 -18 108 -39 118 -48 20 -18 23 -48 4 -55 -21 -8 -263 78 -301 107 -69 52
-30 91 46 47z m3386 -169 c3 -19 -6 -27 -60 -51 -35 -15 -95 -38 -135 -51 -60
-20 -74 -22 -87 -11 -34 28 -14 46 88 81 47 16 99 36 114 45 39 21 76 15 80
-13z m-3174 -298 c25 -10 20 -53 -6 -58 -13 -3 -115 -8 -228 -11 -195 -6 -287
-13 -444 -34 -38 -5 -75 -7 -82 -4 -18 7 -18 37 0 52 35 29 701 77 760 55z
m3612 -35 c16 -13 18 -35 4 -44 -18 -11 -681 -5 -701 6 -21 11 -25 45 -6 52 6
3 164 3 351 1 236 -2 342 -7 352 -15z m-2408 -52 l3 -37 -57 0 -57 0 8 -240 7
-240 -51 0 c-28 0 -52 1 -52 3 -1 1 -6 106 -13 232 l-11 230 -57 3 -58 3 0 34
c0 31 3 35 28 36 15 1 86 4 157 8 72 4 135 7 140 6 6 -1 11 -18 13 -38z m142
-232 l0 -275 -49 0 -48 0 -7 46 c-3 26 -6 150 -6 275 l0 229 55 0 55 0 0 -275z
m360 250 c48 -25 60 -52 60 -132 0 -81 2 -79 -72 -67 l-37 6 -3 67 -3 66 -40
3 c-62 5 -65 -6 -65 -203 0 -184 3 -195 51 -195 39 0 52 22 57 105 l5 75 55 0
55 0 -7 -67 c-9 -84 -31 -131 -75 -160 -66 -44 -195 -21 -229 41 -13 24 -17
64 -20 175 -6 223 7 265 93 297 47 17 132 11 175 -11z m225 9 c14 -6 15 -21 9
-129 l-7 -122 33 -6 c80 -16 76 -21 86 120 l9 127 50 -3 c28 -1 53 -6 56 -9 3
-4 -2 -99 -12 -212 -10 -113 -18 -225 -18 -250 l1 -45 19 70 c11 39 43 152 71
253 41 150 53 182 67 178 9 -2 46 -7 83 -11 l66 -6 7 -72 c10 -120 33 -482 29
-485 -1 -2 -26 0 -56 5 l-53 8 3 35 c2 19 5 43 8 52 6 19 -11 25 -81 30 l-50
3 -3 -53 -3 -54 -77 7 c-42 3 -92 8 -111 11 l-34 5 7 110 7 109 -55 0 -56 0 0
-37 c0 -21 -3 -68 -7 -105 l-6 -68 -54 0 -55 0 6 38 c3 20 8 116 11 212 3 96
8 203 11 238 l6 62 38 0 c21 0 46 -3 55 -6z m-1143 -41 c34 -17 44 -35 53
-100 l7 -53 -56 0 -55 0 -6 38 c-10 56 -13 62 -33 62 -29 0 -42 -21 -42 -67 0
-53 22 -77 76 -86 61 -10 101 -40 113 -84 16 -56 14 -155 -4 -179 -22 -32 -77
-54 -134 -54 -90 0 -122 29 -136 122 l-7 46 56 4 c55 3 56 3 56 -24 0 -44 17
-78 40 -78 28 0 38 33 31 100 l-6 55 -69 17 c-38 10 -77 25 -87 34 -36 32 -51
146 -27 198 29 65 148 91 230 49z m-375 -98 c130 -436 132 -443 109 -449 -11
-3 -38 -6 -58 -6 l-37 0 -3 48 -3 47 -55 -2 c-79 -4 -79 -4 -69 -59 5 -26 6
-51 2 -55 -5 -3 -30 -9 -57 -13 l-49 -6 6 180 c4 99 10 224 13 279 l7 100 61
9 c107 17 106 18 133 -73z m2408 30 c17 -7 44 -27 59 -46 27 -32 28 -37 23
-102 -3 -38 -8 -72 -11 -74 -3 -3 -27 -1 -53 4 l-48 8 4 69 c4 76 -2 86 -56
86 -21 0 -36 -6 -42 -17 -5 -10 -19 -94 -32 -187 -23 -165 -23 -168 -4 -182
28 -21 63 -17 79 9 8 12 18 48 21 80 4 31 11 60 16 63 5 3 30 2 55 -2 l46 -7
-7 -51 c-9 -74 -38 -132 -77 -156 -68 -41 -200 -14 -232 49 -20 38 -20 105 -1
254 18 134 25 157 57 186 43 41 128 48 203 16z m-2820 -37 c12 -69 65 -420 65
-429 0 -6 8 -8 18 -5 9 3 33 8 53 11 35 7 37 6 42 -27 2 -18 3 -35 1 -37 -7
-8 -199 -39 -205 -33 -8 9 -90 524 -85 530 6 5 65 20 88 21 12 1 19 -9 23 -31z
m3059 2 c33 -1 37 -15 21 -96 -8 -43 -15 -86 -15 -94 1 -8 37 23 80 69 l79 84
56 -12 55 -12 -103 -111 -103 -110 47 -156 c26 -87 46 -158 45 -159 -1 -1 -24
4 -51 11 l-50 12 -37 118 c-20 65 -39 120 -42 123 -2 2 -12 -41 -22 -96 -9
-55 -20 -105 -23 -110 -8 -13 -101 7 -101 22 0 12 77 468 86 506 4 20 9 22 36
17 17 -3 36 -6 42 -6z m-3276 -31 c19 -6 36 -23 46 -43 20 -43 40 -167 32
-200 -8 -31 -53 -62 -113 -77 -24 -6 -43 -15 -43 -19 0 -11 30 -172 36 -191 3
-12 -8 -18 -47 -27 -29 -7 -53 -11 -54 -10 -8 8 -109 528 -104 532 6 7 173 44
200 45 9 1 30 -4 47 -10z"/>
</g>
</svg>
